<?xml version="1.0" encoding="UTF-8" standalone="no"?>
<!DOCTYPE svg PUBLIC "-//W3C//DTD SVG 1.1//EN" "http://www.w3.org/Graphics/SVG/1.1/DTD/svg11.dtd">
<svg width="100%" height="100%" viewBox="0 0 870 870" version="1.1" xmlns="http://www.w3.org/2000/svg" xmlns:xlink="http://www.w3.org/1999/xlink" xml:space="preserve" xmlns:serif="http://www.serif.com/" style="fill-rule:evenodd;clip-rule:evenodd;stroke-miterlimit:10;">
    <g transform="matrix(4.708668,0,0,4.729499,430.068713,74.024405)">
        <path d="M0,119.17C-36.379,119.17 -65.976,92.441 -65.976,59.585C-65.976,26.73 -36.379,0 0,0C36.379,0 65.976,26.73 65.976,59.585C65.976,92.441 36.379,119.17 0,119.17" style="fill:rgb(253,213,195);fill-rule:nonzero;"/>
    </g>
    <g transform="matrix(0,-4.729499,-4.708668,0,129.279939,427.481654)">
        <path d="M-3.203,-3.204C-5.117,-3.204 -6.669,-1.77 -6.669,-0.001C-6.669,1.769 -5.117,3.203 -3.203,3.203C-1.29,3.203 0.262,1.769 0.262,-0.001C0.262,-1.77 -1.29,-3.204 -3.203,-3.204" style="fill:rgb(253,213,195);fill-rule:nonzero;"/>
    </g>
    <g transform="matrix(0,-4.729499,-4.708668,0,729.492444,427.481654)">
        <path d="M-3.203,-3.204C-5.117,-3.204 -6.669,-1.769 -6.669,0C-6.669,1.769 -5.117,3.203 -3.203,3.203C-1.29,3.203 0.262,1.769 0.262,0C0.262,-1.769 -1.29,-3.204 -3.203,-3.204" style="fill:rgb(253,213,195);fill-rule:nonzero;"/>
    </g>
    <g transform="matrix(0,-4.729499,-4.708668,0,128.211542,453.092366)">
        <path d="M-1.367,-1.367C-2.123,-1.367 -2.734,-0.755 -2.734,0C-2.734,0.756 -2.123,1.367 -1.367,1.367C-0.612,1.367 0,0.756 0,0C0,-0.755 -0.612,-1.367 -1.367,-1.367" style="fill:rgb(49,74,80);fill-rule:nonzero;"/>
    </g>
    <g transform="matrix(0,-4.729499,-4.708668,0,727.768601,452.9117)">
        <path d="M-1.139,-1.139C-1.768,-1.139 -2.28,-0.628 -2.28,0.001C-2.28,0.631 -1.768,1.139 -1.139,1.139C-0.51,1.139 0.001,0.631 0.001,0.001C0.001,-0.628 -0.51,-1.139 -1.139,-1.139" style="fill:rgb(49,74,80);fill-rule:nonzero;"/>
    </g>
    <g transform="matrix(3.690645,2.937094,2.924157,-3.706972,157.089456,744.534414)">
        <path d="M14.023,-5.773C17.975,-5.104 21.9,-4.201 25.781,-3.068C17.957,14.297 14.466,40.057 14.023,43.508C12.928,43.058 11.825,42.638 10.718,42.245C10.553,32.455 10.429,4.667 14.023,-5.773" style="fill:rgb(49,74,80);fill-rule:nonzero;"/>
    </g>
    <g transform="matrix(4.708668,0,0,4.729499,545.8817,827.287524)">
        <path d="M0,-44.397C-1.147,-43.979 -2.308,-43.587 -3.485,-43.227L-3.216,-43.227C-3.216,-43.227 11.248,-19.652 16.461,0C20.144,-1.594 23.717,-3.392 27.164,-5.384C22.646,-16.391 5.664,-37.51 0,-44.397" style="fill:rgb(49,74,80);fill-rule:nonzero;"/>
    </g>
    <g transform="matrix(4.708668,0,0,4.729499,336.070043,866.206102)">
        <path d="M0,-51.119C-1.792,-48.146 -15.057,-25.783 -19.711,-7.311C-7.587,-2.384 5.669,0.337 19.562,0.337C34.295,0.337 48.312,-2.722 61.021,-8.228C55.807,-27.882 41.343,-51.456 41.343,-51.456L41.073,-51.456C34.442,-49.429 27.342,-48.328 19.963,-48.328C13.007,-48.328 6.3,-49.308 0,-51.119" style="fill:rgb(65,100,108);fill-rule:nonzero;"/>
    </g>
    <g transform="matrix(4.708668,0,0,4.729499,383.289979,866.836072)">
        <path d="M0,-49.136C-0.417,-49.194 -0.831,-49.257 -1.246,-49.322L-10.317,-36.738C-10.39,-36.637 -10.418,-36.511 -10.396,-36.389C-10.374,-36.267 -10.303,-36.159 -10.199,-36.091L-1.528,-30.36L-4.606,-21.272C-4.645,-21.159 -4.637,-21.034 -4.584,-20.927L5.634,0.124C6.463,0.154 7.294,0.176 8.129,0.186L0,-49.136Z" style="fill:rgb(49,74,80);fill-rule:nonzero;"/>
    </g>
    <g transform="matrix(4.708668,0,0,4.729499,470.519938,867.800417)">
        <path d="M0,-49.17C-0.518,-49.109 -1.036,-49.055 -1.558,-49.004L-9.632,-0.008C-9.418,-0.007 -9.205,0 -8.991,0C-8.38,0 -7.771,-0.013 -7.163,-0.023L3.082,-21.131C3.135,-21.238 3.143,-21.363 3.104,-21.476L0.026,-30.564L8.697,-36.295C8.801,-36.363 8.872,-36.471 8.895,-36.593C8.916,-36.715 8.888,-36.841 8.815,-36.941L0,-49.17Z" style="fill:rgb(49,74,80);fill-rule:nonzero;"/>
    </g>
    <g transform="matrix(4.708668,0,0,4.729499,463.185717,866.173469)">
        <path d="M0,-48.66C-2.312,-48.438 -4.657,-48.321 -7.033,-48.321C-10.409,-48.321 -13.727,-48.553 -16.968,-48.996L-8.839,0.326C-8.584,0.329 -8.33,0.334 -8.074,0.336L0,-48.66Z" style="fill:rgb(212,219,220);fill-rule:nonzero;"/>
    </g>
    <g transform="matrix(4.708668,0,0,4.729499,661.855723,444.684735)">
        <path d="M0,16.465C-2.493,24.936 -14.112,24.659 -18.569,24.659C-21.671,24.659 -23.561,24.433 -26.286,23.968C-30.428,23.263 -33.284,21.791 -35.67,18.849C-39.355,14.302 -41.28,10.152 -41.938,5.555C-42.662,0.499 -40.305,-3.096 -35.405,-4.472C-31.552,-5.556 -28.357,-5.982 -24.356,-6.394L-23.704,-6.462C-21.489,-6.691 -8.914,-6.814 -3.601,-5.961C-0.896,-5.526 0.937,-4.174 1.267,-1.329C1.978,4.805 1.801,10.349 0,16.465M-56.326,5.515C-56.984,10.112 -58.909,14.263 -62.594,18.809C-64.98,21.752 -67.837,23.223 -71.978,23.929C-74.704,24.394 -76.593,24.619 -79.695,24.619C-84.152,24.619 -95.771,24.897 -98.265,16.426C-100.065,10.31 -100.242,4.766 -99.531,-1.369C-99.201,-4.213 -97.368,-5.565 -94.664,-6C-89.35,-6.853 -76.775,-6.73 -74.561,-6.501L-73.908,-6.434C-69.906,-6.021 -66.712,-5.596 -62.859,-4.513C-57.96,-3.135 -55.602,0.46 -56.326,5.515M15.159,-5.673C12.164,-7.63 2.789,-9.922 -1.869,-9.942C-3.233,-9.949 -4.597,-9.967 -5.961,-9.985C-7.607,-10.008 -4.771,-10.05 -6.443,-10.05C-7.933,-10.05 -9.253,-10.032 -10.48,-9.994C-16.788,-9.804 -23.203,-9.556 -29.406,-9.318C-33.884,-9.146 -38.36,-8.974 -42.837,-8.821L-44.447,-8.764C-45.81,-8.714 -47.205,-8.667 -48.572,-8.635L-48.572,-8.666C-48.699,-8.663 -48.829,-8.658 -48.955,-8.655C-50.55,-8.684 -52.211,-8.745 -53.817,-8.803L-55.428,-8.86C-59.904,-9.014 -64.381,-9.185 -68.858,-9.357C-75.062,-9.597 -81.476,-9.843 -87.784,-10.034C-89.011,-10.071 -90.332,-10.089 -91.821,-10.089C-93.493,-10.089 -90.657,-10.047 -92.303,-10.024C-93.667,-10.007 -95.031,-9.988 -96.395,-9.982C-101.054,-9.961 -110.428,-7.67 -113.424,-5.712C-113.617,-5.535 -114.204,-4.42 -114.23,-4.156C-114.114,-2.557 -113.518,-2.557 -111.925,-2.556C-110.526,-2.554 -106.331,-2.551 -104.209,-1.138L-104.153,-1.1L-104.109,-1.049C-103.477,-0.293 -103.15,1.933 -102.908,4.966C-102.855,9.025 -102.284,12.778 -101.162,16.593C-98.241,26.514 -85.981,26.514 -81.175,26.514L-80.249,26.514C-76.969,26.514 -74.934,26.269 -72.108,25.786C-67.286,24.965 -63.938,23.12 -61.251,19.807C-58.585,16.518 -56.734,13.329 -55.596,10.028C-54.773,8.509 -52.294,0.18 -52.05,-0.341C-51.405,-1.718 -51.068,-2.456 -49.691,-2.629L-49.691,-2.618C-49.564,-2.626 -49.432,-2.631 -49.288,-2.631C-47.289,-2.631 -46.959,-1.89 -46.214,-0.302C-45.971,0.219 -43.49,8.549 -42.669,10.068C-41.53,13.368 -39.68,16.557 -37.014,19.846C-34.327,23.16 -30.979,25.004 -26.156,25.826C-23.33,26.309 -21.295,26.553 -18.016,26.553L-17.089,26.554C-12.282,26.554 -0.023,26.554 2.897,16.632C4.021,12.818 4.592,9.065 4.644,5.006C4.886,1.973 5.212,-0.254 5.845,-1.009L5.889,-1.061L5.945,-1.098C8.066,-2.512 12.262,-2.514 13.661,-2.515C15.254,-2.517 15.85,-2.518 15.966,-4.117C15.939,-4.381 15.353,-5.496 15.159,-5.673" style="fill:rgb(35,35,34);fill-rule:nonzero;"/>
    </g>
    <g transform="matrix(4.708668,0,0,4.729499,684.115952,7.156377)">
        <path d="M0,37.285C0,37.284 0.001,37.284 0.001,37.283L1.836,33.731C5.891,25.885 2.816,16.237 -5.03,12.182L-20.765,4.054C-28.611,0 -38.259,3.074 -42.313,10.921L-43.638,13.486C-25.851,15.972 -10.337,24.779 0,37.285" style="fill:rgb(105,56,29);fill-rule:nonzero;"/>
    </g>
    <g transform="matrix(4.708668,0,0,4.729499,586.342343,45.671529)">
        <path d="M0,-4.09L15.734,4.039C16.886,4.635 17.933,5.353 18.871,6.166L19.027,5.864C20.964,2.114 19.495,-2.496 15.745,-4.434L8.227,-8.319C4.477,-10.256 -0.134,-8.786 -2.071,-5.036L-2.097,-4.988C-1.387,-4.741 -0.687,-4.444 0,-4.09" style="fill:rgb(88,42,22);fill-rule:nonzero;"/>
    </g>
    <g transform="matrix(4.708668,0,0,4.729499,482.802028,183.497183)">
        <path d="M0,-25.51L-0.884,-23.799C16.903,-21.314 32.417,-12.506 42.754,0C42.754,-0.001 42.755,-0.001 42.755,-0.002L43.657,-1.749C33.164,-14.137 17.701,-22.883 0,-25.51" style="fill:rgb(65,100,108);fill-rule:nonzero;"/>
    </g>
    <g transform="matrix(4.708668,0,0,4.729499,590.301391,184.718813)">
        <path d="M0,41.636C15.901,47.167 25.673,47.196 30.973,52.121C32.496,47.037 33.313,41.694 33.313,36.18C33.313,2.571 3.104,-24.772 -34.029,-24.772C-71.163,-24.772 -101.373,2.571 -101.373,36.18C-101.373,43.638 -99.882,50.785 -97.162,57.397C-95.329,60.878 -92.832,63.982 -89.469,66.408C-89.469,66.408 -93.178,30.898 -76.745,17.001C-76.745,17.001 -60.367,41.365 -30.785,46.244C-30.785,46.244 -48.064,26.607 -42.235,10.239C-42.235,10.239 -21.055,34.312 0,41.636" style="fill:rgb(133,76,42);fill-rule:nonzero;"/>
    </g>
    <g transform="matrix(4.708668,0,0,4.729499,421.230543,574.097083)">
        <path d="M0,0.61C0,0.61 0.843,0.582 2.107,0.539C2.407,0.524 2.723,0.521 3.053,0.496C3.382,0.491 3.723,0.447 4.067,0.429C4.406,0.392 4.756,0.354 5.111,0.316C5.454,0.242 5.813,0.233 6.147,0.131L6.662,0.032C6.825,-0.026 6.992,-0.068 7.157,-0.115C7.319,-0.169 7.496,-0.187 7.648,-0.257C7.807,-0.317 7.962,-0.379 8.122,-0.428C8.45,-0.515 8.729,-0.683 9.028,-0.798C9.335,-0.906 9.599,-1.06 9.856,-1.195C10.11,-1.334 10.385,-1.43 10.589,-1.566C10.799,-1.696 11,-1.8 11.165,-1.891C11.497,-2.072 11.719,-2.166 11.719,-2.166C11.719,-2.166 11.68,-1.946 11.556,-1.575C11.492,-1.39 11.417,-1.16 11.309,-0.905C11.211,-0.642 11.025,-0.401 10.842,-0.111C10.743,0.03 10.641,0.175 10.533,0.327C10.428,0.483 10.277,0.6 10.142,0.746C9.853,1.013 9.561,1.332 9.18,1.549C8.812,1.785 8.427,2.044 7.988,2.193C7.773,2.278 7.558,2.372 7.335,2.446L6.652,2.607C6.194,2.719 5.729,2.734 5.274,2.759C5.047,2.776 4.823,2.746 4.603,2.733C4.383,2.714 4.164,2.713 3.955,2.662C3.536,2.587 3.136,2.502 2.771,2.371C2.404,2.257 2.072,2.103 1.772,1.959C1.176,1.655 0.725,1.323 0.434,1.056C0.137,0.798 0,0.61 0,0.61" style="fill:rgb(224,154,134);fill-rule:nonzero;"/>
    </g>
    <g transform="matrix(4.708668,0,0,4.729499,563.851861,724.140925)">
        <path d="M0,9.92C0,10.882 -0.779,11.662 -1.742,11.662L-18.92,11.662C-19.882,11.662 -20.662,10.882 -20.662,9.92L-20.662,0C-20.662,-0.962 -19.882,-1.742 -18.92,-1.742L-1.742,-1.742C-0.779,-1.742 0,-0.962 0,0L0,9.92Z" style="fill:rgb(212,219,220);fill-rule:nonzero;"/>
    </g>
    <g transform="matrix(4.708668,0,0,4.729499,474.764332,718.059735)">
        <path d="M0,12.492C-0.71,12.492 -1.286,11.915 -1.286,11.206L-1.286,1.286C-1.286,0.577 -0.71,0 0,0L17.178,0C17.888,0 18.464,0.577 18.464,1.286L18.464,11.206C18.464,11.915 17.888,12.492 17.178,12.492L0,12.492Z" style="fill:rgb(249,249,249);fill-rule:nonzero;"/>
    </g>
    <g transform="matrix(4.708668,0,0,4.729499,515.174121,710.17897)">
        <path d="M0,2.003C-0.165,2.003 -0.299,1.869 -0.299,1.704C-0.299,1.539 -0.165,1.405 0,1.405C0.165,1.405 0.299,1.539 0.299,1.704C0.299,1.869 0.165,2.003 0,2.003M0.56,-0.495L-0.561,-0.495C-0.849,-0.495 -1.083,-0.261 -1.083,0.027L-1.083,1.976C-1.083,2.264 -0.849,2.498 -0.561,2.498L0.56,2.498C0.849,2.498 1.082,2.264 1.082,1.976L1.082,0.027C1.082,-0.261 0.849,-0.495 0.56,-0.495" style="fill:rgb(255,206,66);fill-rule:nonzero;"/>
    </g>
    <g transform="matrix(1,0,0,1,83.436657,66.384245)">
        <g transform="matrix(8.2725,0,0,8.2725,467.989615,683.199144)">
        </g>
        <text x="428.546px" y="683.199px" style="font-family:'Helvetica';font-size:8.272px;fill:rgb(49,74,80);">JA<tspan x="438.324px 444.36px 449.94px 455.975px 462.472px " y="683.199px 683.199px 683.199px 683.199px 683.199px ">NEDOE</tspan></text>
    </g>
    <g transform="matrix(4.708668,0,0,4.729499,514.364701,745.998307)">
        <path d="M0,0.489C0,0.707 -0.079,0.789 -0.206,0.789C-0.283,0.789 -0.361,0.747 -0.414,0.691L-0.506,0.836C-0.435,0.906 -0.321,0.951 -0.2,0.951C0.032,0.951 0.189,0.806 0.189,0.468L0.189,-0.462L0,-0.462L0,0.489Z" style="fill:none;fill-rule:nonzero;stroke:rgb(49,74,80);stroke-width:0.22px;"/>
    </g>
    <g transform="matrix(4.708668,0,0,4.729499,516.852761,743.832669)">
        <path d="M0,1.401L0.155,1.008L0.798,1.008L0.953,1.405L1.126,1.336L0.59,-0.004L0.383,-0.004L-0.161,1.336L0,1.401ZM0.477,0.182L0.736,0.849L0.215,0.849L0.477,0.182Z" style="fill:none;fill-rule:nonzero;stroke:rgb(49,74,80);stroke-width:0.22px;"/>
    </g>
    <g transform="matrix(4.708668,0,0,4.729499,526.835608,743.810913)">
        <path d="M0,1.39L0.246,1.39L0.246,0L0.067,0L0.067,1.156L-0.546,0L-0.796,0L-0.796,1.39L-0.617,1.39L-0.617,0.243L0,1.39Z" style="fill:none;fill-rule:nonzero;stroke:rgb(49,74,80);stroke-width:0.22px;"/>
    </g>
    <g transform="matrix(4.708668,0,0,4.729499,529.67729,743.810913)">
        <path d="M0,1.39L0.834,1.39L0.834,1.227L0.188,1.227L0.188,0.744L0.744,0.744L0.744,0.586L0.188,0.586L0.188,0.163L0.834,0.163L0.834,0L0,0L0,1.39Z" style="fill:none;fill-rule:nonzero;stroke:rgb(49,74,80);stroke-width:0.22px;"/>
    </g>
    <g transform="matrix(4.708668,0,0,4.729499,537.669312,743.834561)">
        <path d="M0,1.381C0.111,1.393 0.215,1.401 0.365,1.401C0.861,1.401 1.076,1.075 1.076,0.688C1.076,0.299 0.861,-0.02 0.387,-0.02C0.234,-0.02 0.123,-0.013 0,-0.001L0,1.381ZM0.381,0.142C0.727,0.142 0.884,0.402 0.884,0.688C0.884,1.01 0.729,1.236 0.371,1.236C0.306,1.236 0.244,1.234 0.188,1.226L0.188,0.152C0.242,0.146 0.304,0.142 0.381,0.142Z" style="fill:none;fill-rule:nonzero;stroke:rgb(49,74,80);stroke-width:0.22px;"/>
    </g>
    <g transform="matrix(4.708668,0,0,4.729499,543.674747,747.105956)">
        <path d="M0,-0.004C0,0.393 0.244,0.717 0.655,0.717C1.065,0.717 1.312,0.393 1.312,-0.004C1.312,-0.399 1.063,-0.721 0.655,-0.721C0.244,-0.721 0,-0.41 0,-0.004ZM0.192,-0.004C0.192,-0.317 0.363,-0.558 0.655,-0.558C0.946,-0.558 1.119,-0.287 1.119,-0.004C1.119,0.314 0.961,0.555 0.655,0.555C0.363,0.555 0.192,0.284 0.192,-0.004Z" style="fill:none;fill-rule:nonzero;stroke:rgb(49,74,80);stroke-width:0.22px;"/>
    </g>
    <g transform="matrix(4.708668,0,0,4.729499,509.196467,728.727121)">
        <path d="M0,8.298C0,8.467 -0.137,8.604 -0.306,8.604L-7.438,8.604C-7.607,8.604 -7.744,8.467 -7.744,8.298L-7.744,-0.001C-7.744,-0.17 -7.607,-0.306 -7.438,-0.306L-0.306,-0.306C-0.137,-0.306 0,-0.17 0,-0.001L0,8.298Z" style="fill:rgb(98,176,180);fill-rule:nonzero;"/>
    </g>
    <g transform="matrix(4.708668,0,0,4.729499,490.798759,733.051302)">
        <path d="M0,6.079C-1.855,6.079 -3.365,4.715 -3.365,3.039C-3.365,1.363 -1.855,0 0,0C1.856,0 3.366,1.363 3.366,3.039C3.366,4.715 1.856,6.079 0,6.079" style="fill:rgb(253,213,195);fill-rule:nonzero;"/>
    </g>
    <g transform="matrix(0,-4.729499,-4.708668,0,475.456506,751.080154)">
        <path d="M-0.164,-0.164C-0.262,-0.164 -0.341,-0.09 -0.341,0.001C-0.341,0.09 -0.262,0.164 -0.164,0.164C-0.066,0.164 0.014,0.09 0.014,0.001C0.014,-0.09 -0.066,-0.164 -0.164,-0.164" style="fill:rgb(253,213,195);fill-rule:nonzero;"/>
    </g>
    <g transform="matrix(0,-4.729499,-4.708668,0,506.07462,751.082519)">
        <path d="M-0.163,-0.163C-0.261,-0.163 -0.34,-0.09 -0.34,0C-0.34,0.09 -0.261,0.163 -0.163,0.163C-0.065,0.163 0.014,0.09 0.014,0C0.014,-0.09 -0.065,-0.163 -0.163,-0.163" style="fill:rgb(253,213,195);fill-rule:nonzero;"/>
    </g>
    <g transform="matrix(0,-4.729499,-4.708668,0,475.402827,752.383604)">
        <path d="M-0.071,-0.069C-0.109,-0.069 -0.14,-0.038 -0.14,0.001C-0.14,0.039 -0.109,0.071 -0.071,0.071C-0.032,0.071 -0.001,0.039 -0.001,0.001C-0.001,-0.038 -0.032,-0.069 -0.071,-0.069" style="fill:rgb(49,74,80);fill-rule:nonzero;"/>
    </g>
    <g transform="matrix(0,-4.729499,-4.708668,0,505.98751,752.375564)">
        <path d="M-0.059,-0.058C-0.09,-0.058 -0.117,-0.033 -0.117,0.001C-0.117,0.032 -0.09,0.059 -0.059,0.059C-0.027,0.059 0.001,0.032 0.001,0.001C0.001,-0.033 -0.027,-0.058 -0.059,-0.058" style="fill:rgb(49,74,80);fill-rule:nonzero;"/>
    </g>
    <g transform="matrix(4.708668,0,0,4.729499,479.109491,760.86738)">
        <path d="M0,1.808L0.609,1.808C0.905,0.995 1.388,0.182 1.464,0.055C1.406,0.038 1.349,0.02 1.292,0C1.014,0.34 0.298,1.235 0,1.808" style="fill:rgb(49,74,80);fill-rule:nonzero;"/>
    </g>
    <g transform="matrix(4.708668,0,0,4.729499,496.707196,769.417842)">
        <path d="M0,-1.83C-0.059,-1.809 -0.118,-1.788 -0.178,-1.77L-0.164,-1.77C-0.164,-1.77 0.379,-0.885 0.701,0L1.311,0C1.006,-0.587 0.264,-1.51 0,-1.83" style="fill:rgb(49,74,80);fill-rule:nonzero;"/>
    </g>
    <g transform="matrix(4.708668,0,0,4.729499,486.00251,769.333184)">
        <path d="M0,-1.735C-0.076,-1.609 -0.559,-0.796 -0.854,0.018L2.975,0.018C2.652,-0.867 2.109,-1.753 2.109,-1.753L2.096,-1.753C1.758,-1.649 1.396,-1.592 1.019,-1.592C0.664,-1.592 0.322,-1.643 0,-1.735" style="fill:rgb(65,100,108);fill-rule:nonzero;"/>
    </g>
    <g transform="matrix(4.708668,0,0,4.729499,488.411935,769.378114)">
        <path d="M0,-1.637C-0.021,-1.64 -0.042,-1.643 -0.063,-1.646L-0.526,-1.004C-0.529,-0.999 -0.531,-0.992 -0.53,-0.987C-0.529,-0.98 -0.525,-0.975 -0.52,-0.971L-0.078,-0.679L-0.234,-0.215C-0.236,-0.209 -0.236,-0.203 -0.233,-0.198L-0.134,0.009L0.271,0.009L0,-1.637Z" style="fill:rgb(49,74,80);fill-rule:nonzero;"/>
    </g>
    <g transform="matrix(4.708668,0,0,4.729499,492.863039,769.419261)">
        <path d="M0,-1.637C-0.026,-1.633 -0.053,-1.631 -0.079,-1.628L-0.348,0L0.058,0L0.157,-0.206C0.16,-0.212 0.16,-0.218 0.158,-0.224L0.001,-0.688L0.443,-0.98C0.449,-0.984 0.452,-0.989 0.454,-0.995C0.455,-1.001 0.453,-1.008 0.449,-1.013L0,-1.637Z" style="fill:rgb(49,74,80);fill-rule:nonzero;"/>
    </g>
    <g transform="matrix(4.708668,0,0,4.729499,488.411935,769.42068)">
        <path d="M0,-1.646L0.271,0L0.598,0L0.866,-1.628C0.748,-1.617 0.628,-1.611 0.507,-1.611C0.335,-1.611 0.166,-1.623 0,-1.646" style="fill:rgb(212,219,220);fill-rule:nonzero;"/>
    </g>
    <g transform="matrix(4.708668,0,0,4.729499,502.625521,751.958895)">
        <path d="M0,0.84C-0.128,1.272 -0.721,1.258 -0.947,1.258C-1.105,1.258 -1.202,1.246 -1.341,1.223C-1.553,1.187 -1.698,1.111 -1.82,0.961C-2.008,0.73 -2.106,0.518 -2.14,0.283C-2.177,0.026 -2.057,-0.158 -1.807,-0.228C-1.61,-0.284 -1.447,-0.306 -1.243,-0.327L-1.21,-0.33C-1.097,-0.342 -0.455,-0.347 -0.184,-0.305C-0.046,-0.282 0.048,-0.214 0.064,-0.068C0.101,0.245 0.092,0.528 0,0.84M-2.874,0.281C-2.907,0.516 -3.006,0.728 -3.193,0.959C-3.315,1.11 -3.461,1.185 -3.672,1.221C-3.812,1.244 -3.907,1.256 -4.065,1.256C-4.293,1.256 -4.886,1.27 -5.013,0.838C-5.104,0.526 -5.114,0.242 -5.078,-0.07C-5.061,-0.216 -4.968,-0.284 -4.829,-0.306C-4.559,-0.349 -3.917,-0.344 -3.804,-0.332L-3.771,-0.329C-3.566,-0.307 -3.403,-0.286 -3.207,-0.23C-2.957,-0.16 -2.837,0.023 -2.874,0.281M0.772,-0.29C0.62,-0.389 0.142,-0.507 -0.096,-0.508C-0.165,-0.508 -0.235,-0.509 -0.305,-0.51C-0.389,-0.511 -0.244,-0.513 -0.329,-0.513C-0.405,-0.513 -0.473,-0.512 -0.535,-0.511C-0.856,-0.501 -1.184,-0.488 -1.5,-0.475C-1.729,-0.467 -1.957,-0.458 -2.186,-0.45L-2.268,-0.447C-2.337,-0.445 -2.408,-0.442 -2.479,-0.441L-2.479,-0.442L-2.498,-0.442C-2.579,-0.443 -2.664,-0.446 -2.746,-0.449L-2.828,-0.452C-3.057,-0.46 -3.284,-0.469 -3.513,-0.477C-3.829,-0.49 -4.156,-0.503 -4.479,-0.513C-4.541,-0.514 -4.608,-0.515 -4.685,-0.515C-4.77,-0.515 -4.625,-0.513 -4.709,-0.512C-4.778,-0.511 -4.849,-0.51 -4.918,-0.51C-5.155,-0.509 -5.634,-0.391 -5.786,-0.292C-5.796,-0.283 -5.826,-0.225 -5.827,-0.213C-5.821,-0.131 -5.791,-0.131 -5.71,-0.131C-5.639,-0.131 -5.425,-0.131 -5.316,-0.058L-5.313,-0.056L-5.312,-0.054C-5.279,-0.015 -5.263,0.098 -5.25,0.253C-5.247,0.46 -5.218,0.652 -5.161,0.846C-5.012,1.353 -4.387,1.353 -4.142,1.353L-4.094,1.352C-3.927,1.352 -3.823,1.34 -3.679,1.315C-3.433,1.274 -3.262,1.179 -3.125,1.01C-2.989,0.842 -2.895,0.68 -2.837,0.511C-2.795,0.434 -2.668,0.009 -2.655,-0.017C-2.623,-0.088 -2.605,-0.126 -2.535,-0.135L-2.535,-0.134C-2.528,-0.135 -2.522,-0.135 -2.515,-0.135C-2.413,-0.135 -2.396,-0.097 -2.357,-0.015C-2.346,0.011 -2.219,0.436 -2.177,0.513C-2.119,0.682 -2.024,0.844 -1.889,1.012C-1.751,1.181 -1.581,1.276 -1.335,1.318C-1.19,1.342 -1.087,1.355 -0.919,1.355L-0.872,1.355C-0.627,1.355 -0.002,1.355 0.147,0.848C0.205,0.653 0.233,0.462 0.236,0.255C0.249,0.101 0.266,-0.014 0.298,-0.052L0.3,-0.055L0.303,-0.056C0.411,-0.129 0.625,-0.129 0.696,-0.129C0.777,-0.129 0.809,-0.129 0.814,-0.211C0.812,-0.223 0.783,-0.281 0.772,-0.29" style="fill:rgb(35,35,34);fill-rule:nonzero;"/>
    </g>
    <g transform="matrix(4.708668,0,0,4.729499,503.761251,729.639441)">
        <path d="M0,1.902L0.093,1.72C0.3,1.32 0.144,0.828 -0.257,0.621L-1.06,0.207C-1.46,0 -1.952,0.157 -2.159,0.557L-2.227,0.687C-1.319,0.814 -0.527,1.263 0,1.902" style="fill:rgb(105,56,29);fill-rule:nonzero;"/>
    </g>
    <g transform="matrix(4.708668,0,0,4.729499,498.771947,731.605494)">
        <path d="M0,-0.209L0.803,0.205C0.861,0.236 0.915,0.272 0.963,0.314L0.971,0.299C1.069,0.107 0.994,-0.128 0.803,-0.227L0.42,-0.425C0.229,-0.523 -0.007,-0.449 -0.105,-0.258L-0.107,-0.255C-0.071,-0.242 -0.035,-0.228 0,-0.209" style="fill:rgb(88,42,22);fill-rule:nonzero;"/>
    </g>
    <g transform="matrix(-2.16327,4.200825,4.182322,2.17284,503.712233,732.38631)">
        <path d="M1.015,-1.92L1.113,-1.92C0.809,-1.056 0.844,-0.146 1.169,0.617L1.068,0.616C0.753,-0.15 0.719,-1.056 1.015,-1.92" style="fill:rgb(65,100,108);fill-rule:nonzero;"/>
    </g>
    <g transform="matrix(4.708668,0,0,4.729499,498.974419,738.695014)">
        <path d="M0,2.124C0.811,2.406 1.31,2.408 1.58,2.659C1.657,2.399 1.699,2.127 1.699,1.846C1.699,0.131 0.158,-1.264 -1.736,-1.264C-3.63,-1.264 -5.172,0.131 -5.172,1.846C-5.172,2.227 -5.096,2.591 -4.957,2.928C-4.863,3.105 -4.735,3.264 -4.564,3.388C-4.564,3.388 -4.753,1.576 -3.915,0.867C-3.915,0.867 -3.08,2.11 -1.57,2.359C-1.57,2.359 -2.452,1.357 -2.154,0.522C-2.154,0.522 -1.074,1.751 0,2.124" style="fill:rgb(133,76,42);fill-rule:nonzero;"/>
    </g>
    <g transform="matrix(4.708668,0,0,4.729499,484.048413,752.099361)">
        <path d="M0,0.2C0,0.2 0.004,0.189 0.015,0.173C0.025,0.156 0.043,0.133 0.067,0.109C0.08,0.097 0.094,0.086 0.11,0.075C0.126,0.063 0.144,0.052 0.163,0.043C0.183,0.033 0.204,0.024 0.226,0.017C0.248,0.011 0.271,0.006 0.295,0.003C0.318,0.001 0.343,0 0.366,0.002C0.378,0.003 0.39,0.004 0.4,0.006C0.412,0.008 0.423,0.01 0.434,0.013C0.444,0.016 0.455,0.019 0.465,0.024C0.475,0.028 0.484,0.031 0.493,0.036C0.512,0.045 0.527,0.055 0.541,0.065C0.555,0.076 0.567,0.085 0.577,0.096C0.587,0.105 0.595,0.114 0.601,0.122C0.613,0.138 0.619,0.147 0.619,0.147C0.619,0.147 0.607,0.145 0.59,0.139C0.58,0.137 0.569,0.135 0.557,0.131C0.545,0.127 0.53,0.124 0.516,0.12C0.5,0.117 0.484,0.113 0.468,0.111C0.46,0.109 0.451,0.108 0.442,0.107C0.434,0.106 0.426,0.105 0.416,0.105C0.398,0.103 0.381,0.103 0.362,0.103C0.344,0.103 0.325,0.104 0.307,0.107C0.288,0.109 0.27,0.112 0.252,0.116C0.242,0.118 0.233,0.12 0.225,0.122C0.216,0.125 0.206,0.127 0.197,0.129C0.162,0.138 0.129,0.15 0.1,0.161C0.071,0.172 0.046,0.181 0.028,0.188C0.02,0.192 0.012,0.194 0.007,0.197C0.002,0.199 0,0.2 0,0.2" style="fill:rgb(179,97,47);fill-rule:nonzero;"/>
    </g>
    <g transform="matrix(4.708668,0,0,4.729499,494.730026,752.099361)">
        <path d="M0,0.2C0,0.2 0.005,0.189 0.016,0.173C0.026,0.156 0.043,0.133 0.068,0.109C0.08,0.097 0.095,0.086 0.11,0.075C0.127,0.063 0.145,0.052 0.164,0.043C0.184,0.033 0.204,0.024 0.227,0.017C0.249,0.011 0.272,0.006 0.296,0.003C0.319,0.001 0.343,0 0.367,0.002C0.378,0.003 0.39,0.004 0.401,0.006C0.412,0.008 0.424,0.01 0.435,0.013C0.445,0.016 0.455,0.019 0.465,0.024C0.476,0.028 0.485,0.031 0.494,0.036C0.512,0.045 0.527,0.055 0.542,0.065C0.556,0.076 0.568,0.085 0.577,0.096C0.587,0.105 0.596,0.114 0.602,0.122C0.614,0.138 0.62,0.147 0.62,0.147C0.62,0.147 0.608,0.145 0.59,0.139C0.581,0.137 0.569,0.135 0.558,0.131C0.545,0.127 0.53,0.124 0.516,0.12C0.501,0.117 0.485,0.113 0.469,0.111C0.46,0.109 0.452,0.108 0.443,0.107C0.435,0.106 0.426,0.105 0.417,0.105C0.399,0.103 0.381,0.103 0.363,0.103C0.345,0.103 0.326,0.104 0.308,0.107C0.289,0.109 0.271,0.112 0.252,0.116C0.243,0.118 0.234,0.12 0.225,0.122C0.216,0.125 0.207,0.127 0.198,0.129C0.163,0.138 0.13,0.15 0.101,0.161C0.071,0.172 0.047,0.181 0.028,0.188C0.021,0.192 0.013,0.194 0.008,0.197C0.003,0.199 0,0.2 0,0.2" style="fill:rgb(179,97,47);fill-rule:nonzero;"/>
    </g>
    <g transform="matrix(0,-4.729499,-4.708668,0,485.613103,753.775969)">
        <path d="M-0.26,-0.26C-0.404,-0.26 -0.52,-0.144 -0.52,-0.001C-0.52,0.143 -0.404,0.26 -0.26,0.26C-0.115,0.26 0.001,0.143 0.001,-0.001C0.001,-0.144 -0.115,-0.26 -0.26,-0.26" style="fill:rgb(71,28,20);fill-rule:nonzero;"/>
    </g>
    <g transform="matrix(0,-4.729499,-4.708668,0,486.071727,754.680249)">
        <path d="M-0.08,-0.081C-0.125,-0.081 -0.161,-0.045 -0.161,-0.001C-0.161,0.044 -0.125,0.08 -0.08,0.08C-0.036,0.08 0,0.044 0,-0.001C0,-0.045 -0.036,-0.081 -0.08,-0.081" style="fill:white;fill-rule:nonzero;"/>
    </g>
    <g transform="matrix(0,-4.729499,-4.708668,0,496.078589,753.775969)">
        <path d="M-0.26,-0.26C-0.404,-0.26 -0.52,-0.144 -0.52,-0.001C-0.52,0.143 -0.404,0.26 -0.26,0.26C-0.115,0.26 0.001,0.143 0.001,-0.001C0.001,-0.144 -0.115,-0.26 -0.26,-0.26" style="fill:rgb(71,28,20);fill-rule:nonzero;"/>
    </g>
    <g transform="matrix(0,-4.729499,-4.708668,0,496.537684,754.680249)">
        <path d="M-0.08,-0.081C-0.125,-0.081 -0.161,-0.045 -0.161,-0.001C-0.161,0.044 -0.125,0.08 -0.08,0.08C-0.036,0.08 0,0.044 0,-0.001C0,-0.045 -0.036,-0.081 -0.08,-0.081" style="fill:white;fill-rule:nonzero;"/>
    </g>
    <g transform="matrix(4.708668,0,0,4.729499,489.304228,758.439255)">
        <path d="M0,-0.121C0,-0.121 0.047,-0.115 0.116,-0.106C0.133,-0.104 0.15,-0.101 0.168,-0.1C0.187,-0.098 0.205,-0.097 0.225,-0.095C0.243,-0.094 0.263,-0.093 0.282,-0.092C0.302,-0.093 0.321,-0.09 0.341,-0.093L0.369,-0.094C0.379,-0.096 0.389,-0.097 0.397,-0.098C0.407,-0.099 0.417,-0.099 0.426,-0.1C0.436,-0.102 0.444,-0.104 0.453,-0.106C0.472,-0.108 0.489,-0.115 0.506,-0.118C0.524,-0.122 0.54,-0.128 0.555,-0.133C0.57,-0.139 0.586,-0.141 0.599,-0.146C0.611,-0.152 0.623,-0.156 0.633,-0.159C0.652,-0.166 0.665,-0.17 0.665,-0.17C0.665,-0.17 0.661,-0.158 0.651,-0.139C0.646,-0.129 0.64,-0.117 0.632,-0.104C0.624,-0.091 0.612,-0.079 0.6,-0.065C0.593,-0.059 0.586,-0.051 0.579,-0.044C0.571,-0.036 0.562,-0.031 0.554,-0.024C0.535,-0.012 0.517,0.003 0.494,0.011C0.472,0.021 0.448,0.031 0.423,0.036C0.41,0.039 0.398,0.042 0.385,0.044L0.347,0.047C0.32,0.049 0.295,0.046 0.27,0.043C0.257,0.042 0.245,0.038 0.233,0.036C0.222,0.033 0.209,0.031 0.198,0.026C0.176,0.019 0.155,0.01 0.137,0C0.117,-0.01 0.101,-0.02 0.085,-0.031C0.056,-0.053 0.033,-0.075 0.021,-0.093C0.006,-0.109 0,-0.121 0,-0.121" style="fill:rgb(235,174,155);fill-rule:nonzero;"/>
    </g>
</svg>
